<?xml version="1.0" encoding="utf-8"?>
<!-- Generator: Adobe Illustrator 22.0.1, SVG Export Plug-In . SVG Version: 6.00 Build 0)  -->
<svg version="1.1" id="Слой_1" xmlns="http://www.w3.org/2000/svg" xmlns:xlink="http://www.w3.org/1999/xlink" x="0px" y="0px"
	 viewBox="0 0 211.6 60.6" style="enable-background:new 0 0 211.6 60.6;" xml:space="preserve">
<style type="text/css">
	.st0{fill:#FFFFFF;stroke:#000000;}
</style>
<path class="st0" d="M10.9,60.6L0.5,6.4l210.1-5.5L180,60.4L10.9,60.6z"/>
<path d="M62.7,37l1.8,0l0.1-5.4l7.2,0.1l-0.1,5.4l1.8,0l0.2-12.4l-1.8,0l-0.1,5.4L64.7,30l0.1-5.4l-1.8,0L62.7,37z M80.6,37.5
	c2.2,0,3.6-1,4.5-2.1l0,1.8l1.8,0l0.1-7.6c0-1.6-0.4-2.8-1.3-3.7c-0.9-0.9-2.2-1.4-4-1.4c-1.8,0-3.1,0.4-4.5,1l0.5,1.5
	c1.2-0.5,2.3-0.9,3.8-0.8c2.3,0,3.7,1.2,3.6,3.4l0,0.4c-1.1-0.3-2.2-0.6-3.8-0.6c-3.1,0-5.3,1.3-5.4,4C76,36.1,78.2,37.5,80.6,37.5z
	 M80.9,36c-1.7,0-3.1-1-3.1-2.5c0-1.5,1.4-2.5,3.7-2.5c1.5,0,2.7,0.3,3.6,0.6l0,1.2C85.1,34.7,83.2,36,80.9,36z M96.3,37.4l6.2,0.1
	c2.7,0,4.5-1.2,4.6-3.3c0-1.8-1.2-2.7-2.7-3.1c1-0.4,2.1-1.2,2.1-2.8c0-1.9-1.5-3.1-4-3.1l-6-0.1L96.3,37.4z M98.2,35.9l0.1-4l3.9,0
	c2,0,3.1,0.8,3.1,2c0,1.3-1.1,2.1-2.9,2.1L98.2,35.9z M98.2,30.4l0-3.7l3.9,0c1.6,0,2.5,0.8,2.4,1.8c0,1.3-1.1,2-2.5,2L98.2,30.4z
	 M114.9,38c2.4,0,3.9-0.9,5.1-2.3l-1.1-1c-1,1-2.2,1.7-3.9,1.7c-2.2,0-4.1-1.6-4.3-4.2l9.8,0.1c0-0.3,0-0.5,0-0.6
	c0-3.6-2-6.6-5.7-6.6c-3.4,0-6,2.8-6,6.4C108.8,35.3,111.5,37.9,114.9,38z M110.7,30.7c0.3-2.4,1.9-4.2,4.1-4.1c2.4,0,3.7,2,3.9,4.2
	L110.7,30.7z M122.8,41.6l1.8,0l0.1-6.2c0.9,1.4,2.4,2.7,4.7,2.7c3,0,6-2.3,6-6.4c0.1-4.1-2.9-6.5-5.8-6.6c-2.3,0-3.8,1.2-4.8,2.7
	l0-2.5l-1.8,0L122.8,41.6z M129.2,36.5c-2.3,0-4.5-2-4.4-4.9c0-2.9,2.2-4.8,4.5-4.8c2.4,0,4.3,1.9,4.3,4.9
	C133.5,34.7,131.6,36.5,129.2,36.5z M136.8,37.9l2.1,0l3.9-5l3.8,5.1l2.1,0l-4.8-6.4l4.8-6l-2.1,0l-3.7,4.8l-3.6-4.8l-2.1,0l4.6,6.2
	L136.8,37.9z"/>
</svg>
